<?xml version="1.0" encoding="utf-8"?>
<!-- Generator: Adobe Illustrator 25.2.3, SVG Export Plug-In . SVG Version: 6.00 Build 0)  -->
<svg version="1.1" id="Layer_1" xmlns="http://www.w3.org/2000/svg" xmlns:xlink="http://www.w3.org/1999/xlink" x="0px" y="0px"
	 viewBox="0 0 250 250" style="enable-background:new 0 0 250 250;" xml:space="preserve">
<style type="text/css">
	.st0{fill:#333333;}
</style>
<g>
	<path class="st0" d="M219.78,116.63l-16.82-24.69c-0.6-0.88-1.6-1.41-2.66-1.41h-23.56V77.61c0-5.33-4.34-9.66-9.67-9.66H73.13
		c-5.33,0-9.66,4.33-9.66,9.66v1.45h6.45v-1.45c0-1.78,1.44-3.22,3.22-3.22h93.93c1.78,0,3.22,1.44,3.22,3.22v44.32h0.06v30.77
		h-39.13c-3.35-6.87-10.39-11.62-18.53-11.62c-8.15,0-15.18,4.76-18.54,11.62h-21c-1.78,0-3.22-1.44-3.22-3.27v-1.91h-6.45v1.95
		c0,5.33,4.34,9.66,9.66,9.66h19.08c-0.11,0.84-0.18,1.69-0.18,2.57c0,11.38,9.25,20.63,20.63,20.63c11.38,0,20.63-9.25,20.63-20.63
		c0-0.87-0.07-1.72-0.18-2.57h43.79h0.09c-0.11,0.84-0.18,1.69-0.18,2.57c0,11.38,9.25,20.63,20.63,20.63
		c11.38,0,20.63-9.25,20.63-20.63c0-0.87-0.07-1.72-0.18-2.57c-0.02-0.14-0.05-0.27-0.07-0.4c4.06-1.15,7.05-4.84,7.05-9.26v-24.33
		C224.91,121.47,222.83,118.25,219.78,116.63z M112.67,175.91c-7.83,0-14.19-6.37-14.19-14.19c0-0.88,0.11-1.73,0.26-2.57
		c0.45-2.43,1.54-4.61,3.06-6.44c2.6-3.14,6.48-5.18,10.87-5.18c4.39,0,8.27,2.04,10.87,5.18c1.52,1.83,2.61,4.01,3.06,6.44
		c0.15,0.83,0.26,1.69,0.26,2.57C126.86,169.54,120.5,175.91,112.67,175.91z M176.73,96.97h21.86l12.61,18.52h-34.48V96.97z
		 M197.47,175.91c-7.83,0-14.19-6.37-14.19-14.19c0-0.88,0.11-1.73,0.26-2.57c0.45-2.43,1.54-4.61,3.06-6.44
		c2.6-3.14,6.48-5.18,10.87-5.18c4.39,0,8.27,2.04,10.87,5.18c1.52,1.83,2.61,4.01,3.06,6.44c0.15,0.83,0.26,1.69,0.26,2.57
		C211.66,169.54,205.3,175.91,197.47,175.91z M218.47,149.49c0,1.53-1.1,2.76-2.54,3.08c-3.38-6.79-10.37-11.48-18.46-11.48
		c-8.15,0-15.18,4.76-18.54,11.62h-0.09h-2.05v-30.77h38.46c0.13,0,0.25,0.02,0.37,0.04l2.84,4.18V149.49z"/>
	<path class="st0" d="M61.73,92.44h41.98c1.78,0,3.23-1.45,3.23-3.23s-1.45-3.23-3.23-3.23H61.73c-1.78,0-3.23,1.45-3.23,3.23
		S59.95,92.44,61.73,92.44z"/>
	<path class="st0" d="M31.06,108.58h41.98c1.78,0,3.23-1.45,3.23-3.23s-1.45-3.23-3.23-3.23H31.06c-1.78,0-3.23,1.45-3.23,3.23
		S29.28,108.58,31.06,108.58z"/>
	<path class="st0" d="M92.47,137.51c0-1.78-1.45-3.23-3.23-3.23H47.26c-1.78,0-3.23,1.45-3.23,3.23s1.45,3.23,3.23,3.23h41.98
		C91.02,140.74,92.47,139.3,92.47,137.51z"/>
	<path class="st0" d="M39.62,92.44h12.19c1.09,0,1.98-0.89,1.98-1.98v-2.5c0-1.09-0.89-1.98-1.98-1.98H39.62
		c-1.09,0-1.98,0.89-1.98,1.98v2.5C37.64,91.55,38.53,92.44,39.62,92.44z"/>
	<path class="st0" d="M52.05,118.26c-1.78,0-3.23,1.45-3.23,3.23s1.45,3.23,3.23,3.23h41.98c1.78,0,3.23-1.45,3.23-3.23
		s-1.45-3.23-3.23-3.23H52.05z"/>
	<path class="st0" d="M44.1,120.43c0-1.2-0.97-2.17-2.17-2.17H26.89c-1.2,0-2.17,0.97-2.17,2.17v2.13c0,1.2,0.97,2.17,2.17,2.17
		h15.04c1.2,0,2.17-0.97,2.17-2.17V120.43z"/>
</g>
</svg>
