<?xml version="1.0" encoding="utf-8"?>
<!-- Generator: Adobe Illustrator 25.2.3, SVG Export Plug-In . SVG Version: 6.00 Build 0)  -->
<svg version="1.1" xmlns="http://www.w3.org/2000/svg" xmlns:xlink="http://www.w3.org/1999/xlink" x="0px" y="0px"
	 viewBox="0 0 284 180" style="enable-background:new 0 0 284 180;" xml:space="preserve">
<style type="text/css">
	.st0{display:none;}
	.st1{display:inline;fill:#ED1C24;}
	.st2{fill:#FFFFFF;}
	.st3{display:inline;fill:#B0FF24;}
	.st4{display:inline;}
	.st5{font-family:'MyriadPro-Regular';}
	.st6{font-size:5.613px;}
</style>
<g id="BG" class="st0">
	<rect x="-0.4" y="-0.3" class="st1" width="284" height="180"/>
</g>
<g id="logo">
	<g>
		<path class="st2" d="M194.9,36.2c-1-2-2.5-3.7-4.4-5c-0.2-0.1-0.4-0.1-0.6,0l-3.7,2.1l-0.4-0.7l0.8-1.1c0.1-0.2,0.1-0.4,0-0.6
			l-0.4-0.7c-0.1-0.2-0.3-0.3-0.5-0.4c-0.6-0.2-1.3,0-1.9,0.3c-0.6,0.3-1,0.8-1.2,1.5c0,0.2,0,0.4,0.1,0.6l0.4,0.7
			c0.1,0.2,0.3,0.3,0.5,0.3l1.3-0.1l0.4,0.7l-5.3,3l-0.4-0.7l0.8-1.1c0.1-0.2,0.1-0.4,0-0.6l-0.4-0.7c-0.1-0.2-0.3-0.4-0.5-0.4
			c-0.6-0.2-1.3,0-1.9,0.3c-0.6,0.3-1,0.8-1.2,1.5c0,0.2,0,0.4,0.1,0.6l0.4,0.7c0.1,0.2,0.3,0.3,0.5,0.3l1.3-0.1l0.4,0.7l-5.3,3
			l-0.4-0.7l0.8-1.1c0.1-0.2,0.2-0.4,0-0.6l-0.4-0.7c-0.1-0.2-0.3-0.4-0.5-0.4c-1.3-0.3-2.7,0.5-3.1,1.8c0,0.2,0,0.4,0.1,0.6
			l0.4,0.7c0.1,0.2,0.3,0.3,0.5,0.3l1.3-0.1l0.4,0.7l-2.3,1.3c-0.2,0.1-0.3,0.3-0.4,0.5c-0.7,1.6-2,3-3.6,3.8l-59.4,30.5
			c-4.5-7.9-9.2-12.9-13.6-14.3c-4-1.3-8.4-0.8-12,1.3c-1.9,1-3.6,2.3-5.1,3.8L75.8,68c-2.3,2.2-4.8,4-7.6,5.5
			c-2.8,1.5-6.8,1.9-9.7,1.8c-10.1-1.2-18.1,0-24.5,3.5c-7.8,4.3-12.3,9.7-13.6,16.5c-1.4,7.2,0.7,16,6.3,26.8
			c0.3,0.5,0.5,1,0.8,1.5s0.5,1,0.8,1.5l0,0C39.2,146,51.8,151.9,68,143.8c6.5-3.3,12-9.2,16.8-18.2c1.6-2.4,4.2-5.6,7-7
			c2.8-1.5,5.8-2.5,8.9-3.1l0.7-0.2c2.1-0.4,4.1-1.1,6-2.1c3.8-1.8,6.7-5.1,7.9-9.2c1.4-4.4,0-11.1-4.1-19.4l59.2-31.2
			c1.6-0.9,3.4-1.2,5.2-0.8c0.2,0,0.4,0,0.6-0.1l2.4-1.1l0.4,0.7l-0.8,1c-0.2,0.2-0.2,0.4-0.1,0.6l0.4,0.7l0,0
			c0.1,0.2,0.3,0.4,0.5,0.4c0.6,0.2,1.3,0.1,1.9-0.2c0.6-0.3,1.1-0.8,1.3-1.4c0.1-0.2,0-0.4-0.1-0.6l-0.4-0.7
			c-0.1-0.2-0.3-0.3-0.5-0.3h-1.3l-0.3-0.7l5.5-2.7l0.4,0.7l-0.8,1c-0.1,0.2-0.2,0.4-0.1,0.6l0.4,0.7c0.1,0.2,0.3,0.4,0.5,0.4
			c0.6,0.2,1.3,0.1,1.9-0.2c0.6-0.3,1.1-0.8,1.3-1.4c0.1-0.2,0-0.4-0.1-0.6l-0.4-0.7c-0.1-0.2-0.3-0.3-0.5-0.3h-1.3L186,48l5.5-2.7
			l0.4,0.8l-0.8,1c-0.2,0.2-0.2,0.4-0.1,0.6l0.4,0.7c0.1,0.2,0.3,0.4,0.5,0.5c0.6,0.2,1.3,0.1,1.9-0.2c0.6-0.3,1.1-0.8,1.3-1.4
			c0.1-0.2,0-0.4-0.1-0.6l-0.4-0.7c-0.1-0.2-0.3-0.3-0.5-0.3h-1.3l-0.4-0.7l3.9-1.9c0.2-0.1,0.3-0.3,0.3-0.5
			C196.7,41.6,196.3,38.9,194.9,36.2z M104.6,88.8c3.6,7.4,4.5,10.5,3.6,13.4c-0.7,2.1-2.2,3.7-4.1,4.7c-1.5,0.8-3.1,1.4-4.8,1.8
			l-0.7,0.2c-3.5,0.7-6.9,2-10,3.9c-4.1,2.4-5.7,4.6-8.9,9.1l-1.2,1.6c-5.5,8.4-9,12.1-14.7,14.9c-8.1,4-13.5,1.1-16.4-0.5
			c-4.3-2.3-9.6-9-13.8-17.3l-0.1-0.1c-4.5-8.2-6.9-16.4-6.4-21.2c0.4-3.3,1-9.4,9-13.7c5.6-3.1,10.6-3.9,20.7-3.6l2,0
			c5.5-0.1,8.3-0.2,12.6-2.1c3.3-1.4,6.3-3.5,9-6l0.5-0.5c1.3-1.1,2.7-2.1,4.2-2.9c1.9-1.1,4.1-1.4,6.2-0.7c2.9,0.9,5,3.4,9,10.6
			l0,0.1L90,85.7c-5.1-4.1-12.5-3.2-16.6,1.9c-4.1,5.1-3.2,12.5,1.9,16.6c5.1,4.1,12.5,3.2,16.6-1.9c1.8-2.3,2.7-5.2,2.5-8.1
			c0-0.1,0-0.2,0-0.3l10.2-5.4l-0.1,0.1L104.6,88.8z"/>
		<path class="st2" d="M196.6,113.7h-7.5v-29h7.5L196.6,113.7z"/>
		<path class="st2" d="M196.6,82.8h-7.5v-5.5h7.5L196.6,82.8z"/>
		<path class="st2" d="M121.6,126.7c-4.9-5.3-11.6-7.7-18.5-6.5c-9.6,1.5-16.6,9.8-16.5,19.5c0.1,9.4,7.8,19.5,20,19.4h0.2
			c2.5,0,8.9-1,13.3-5.7l1.1-1.1l-4.2-4.8l-0.1-0.1l-0.1,0l-0.4,0.3c-0.1,0.1-0.2,0.2-0.4,0.3c-1.5,1.5-4.6,3.6-9.6,3.7h-0.1
			c-3.3,0.1-6.4-1.2-8.7-3.4c-2.4-2.3-3.7-5.5-3.8-8.8c-0.1-10.2,9.9-12.5,12.3-12.5c3.7,0,7.1,1.1,10.6,4.2l0.4,0.3l0.5-0.6
			L121.6,126.7z"/>
		<path class="st2" d="M185.5,113.6h-7.1V111c-1.8,2.1-4.5,3.4-7.3,3.3c-6.8,0-11.4-5.1-11.4-12.7V84.8h7.4v16.9
			c0,1.6,0.6,5.7,5.4,5.7c3,0.1,5.5-2.3,5.6-5.3c0-0.1,0-0.2,0-0.4V84.8h7.4L185.5,113.6z"/>
		<path class="st2" d="M263.9,91.4c-3-0.3-5.4,0-7.1,1.8c-1.6,1.6-1.9,4-1.9,6.3v14.2h-7.4V84.8h7.1v2.9c2.2-2.8,5.8-4.1,9.3-3.4
			L263.9,91.4z"/>
		<path class="st2" d="M126.8,142.7c0.8,3.4,3.8,5.7,7.2,5.7c2.5,0,4.9-1.1,6.1-3.4h7.9c-1.7,5.9-6.8,9.9-13.9,9.9
			c-8.2-0.1-14.9-6.8-14.8-15.1c0-8.3,6.7-15.2,14.8-15.2c8.5,0,15.6,6.6,14.5,18L126.8,142.7z M141.2,136.7
			c-0.8-3.3-3.8-5.6-7.2-5.5c-3.4,0-6,2.1-7.1,5.5H141.2z"/>
		<path class="st2" d="M176.1,154.2h-7.4v-16.9c0-1.7-0.5-5.7-5.4-5.7c-3-0.1-5.5,2.3-5.6,5.3c0,0.1,0,0.3,0,0.4v16.9h-7.4v-28.8
			h7.1v2.8c1.8-2.2,4.6-3.5,7.5-3.5c6.8,0,11.3,5.1,11.3,12.7V154.2z"/>
		<path class="st2" d="M180.8,154.2v-22.3h-4.1v-6.5h4.1v-7.3h7.4v7.3h4.6v6.5h-4.6v22.3L180.8,154.2z"/>
		<path class="st2" d="M203.1,113.8V91.5h-4.1V85h4.1v-7.3h7.4V85h4.6v6.6h-4.6v22.3L203.1,113.8z"/>
		<path class="st2" d="M200,142.7c0.8,3.4,3.8,5.7,7.2,5.7c2.5,0,4.9-1.1,6.1-3.4h7.9c-1.7,5.9-6.8,9.9-13.9,9.9
			c-8.2-0.1-14.9-6.8-14.8-15c0,0,0,0,0,0c0-8.3,6.7-15.2,14.8-15.2c8.5,0,15.6,6.6,14.5,18L200,142.7z M214.5,136.7
			c-0.8-3.3-3.8-5.6-7.2-5.5c-3.4,0-6,2.1-7.1,5.5H214.5z"/>
		<path class="st2" d="M240.4,132c-3-0.3-5.4,0-7.1,1.8c-1.6,1.6-1.9,4-1.9,6.3v14.2h-7.4v-28.9h7.1v2.9c2.2-2.8,5.8-4.1,9.3-3.4
			L240.4,132z"/>
		<path class="st2" d="M154.6,84.9c-3.7-5.1-9.6-8.1-15.9-8.1c-10.9-0.1-19.9,8.6-20,19.5c-0.1,5.2,2,10.3,5.7,14
			c3.6,3.7,8.5,5.9,13.7,5.9h0.2c10.8,0,19.7-8.7,19.8-19.5c0-1.1-0.1-2.2-0.2-3.2l0,0l0,0h-18.4v6.9h10.9c-1.7,5.2-6.6,8.7-12,8.7
			h-0.1c-3.3,0-6.4-1.4-8.6-3.7c-2.4-2.4-3.7-5.6-3.6-8.9c0.1-6.9,5.7-12.5,12.6-12.4h0.1c3.9,0,7.6,1.9,10,5l0.2,0.3L154.6,84.9z"
			/>
		<path class="st2" d="M244.5,113.5h-7.1v-3.1c-2.3,2.4-5.5,3.7-8.8,3.7c-7.5,0-13.7-6.5-13.7-15S221.1,84,228.6,84
			c3.3,0,6.5,1.3,8.8,3.7v-3.1h7.1V113.5z M229.7,90.8c-4.1,0-7.4,3.6-7.4,8.3c0,4.6,3.3,8.1,7.4,8.1s7.4-3.6,7.4-8.1
			C237.1,94.5,233.8,90.8,229.7,90.8z"/>
		<path class="st2" d="M246.9,124.9v0.7h-1.3v3.5h-0.8v-3.5h-1.3V125L246.9,124.9z M251.4,129.1l-0.2-2.5c0-0.3,0-0.7,0-1.2h0
			c-0.1,0.4-0.2,0.9-0.4,1.3l-0.8,2.3h-0.9l-0.8-2.4c-0.1-0.3-0.2-0.8-0.3-1.2h-0.1c0,0.4,0,0.8,0,1.2l-0.2,2.5h-0.8l0.3-4.2h1.3
			l0.7,2.1c0.1,0.3,0.2,0.6,0.3,1.1l0,0c0.1-0.4,0.2-0.7,0.3-1l0.7-2.1h1.2l0.3,4.2L251.4,129.1z"/>
	</g>
</g>
<g id="padding" class="st0">
	<rect x="263.9" y="85.6" class="st3" width="20" height="20"/>
	<rect x="-0.1" y="85.8" class="st3" width="20" height="20"/>
	<rect x="98.6" y="159.3" class="st3" width="20" height="20"/>
	<rect x="178.5" y="-0.1" class="st3" width="20" height="30"/>
	<text transform="matrix(1 0 0 1 3.7257 97.706)" class="st4 st5 st6">20px</text>
	<text transform="matrix(1 0 0 1 268.5946 97.706)" class="st4 st5 st6">20px</text>
	<text transform="matrix(1 0 0 1 102.8229 171.5301)" class="st4 st5 st6">20px</text>
	<text transform="matrix(1 0 0 1 182.7991 16.0672)" class="st4 st5 st6">30px</text>
</g>
</svg>
