<?xml version="1.0" encoding="utf-8"?>
<!-- Generator: Adobe Illustrator 25.2.3, SVG Export Plug-In . SVG Version: 6.00 Build 0)  -->
<svg version="1.1" id="Layer_1" xmlns="http://www.w3.org/2000/svg" xmlns:xlink="http://www.w3.org/1999/xlink" x="0px" y="0px"
	 viewBox="0 0 250 250" style="enable-background:new 0 0 250 250;" xml:space="preserve">
<style type="text/css">
	.st0{fill:#333333;}
</style>
<path class="st0" d="M32.04,123.65v53.86h185.52v-53.86H32.04z M63.65,172.86h-19.3v-44.55h19.3V172.86z M91.22,172.86h-19.3v-44.55
	h19.3V172.86z M122.79,172.86h-19.3v-31.88h19.3V172.86z M146.18,172.86h-19.3v-31.88h19.3V172.86z M146.18,137.29H103.5v-8.98
	h42.68V137.29z M177.15,172.86h-19.3v-44.55h19.3V172.86z M204.73,172.86h-19.3v-44.55h19.3V172.86z"/>
<g>
	<path class="st0" d="M126.1,106.11c0,0-0.98,0.89-0.51,2.08l2.59-2.59C128.18,105.6,127.22,105.11,126.1,106.11z"/>
	<path class="st0" d="M160.42,103.83v0.38c0,0,0.39,0.03,0.39-0.19C160.82,103.77,160.42,103.83,160.42,103.83z"/>
	<path class="st0" d="M160.59,103.4c-0.25,0-0.49,0.1-0.66,0.27c-0.18,0.18-0.27,0.41-0.27,0.66c0,0.25,0.1,0.49,0.27,0.66
		c0.18,0.18,0.41,0.28,0.66,0.28c0.52,0,0.94-0.42,0.94-0.94c0-0.25-0.1-0.49-0.27-0.66C161.07,103.5,160.84,103.4,160.59,103.4z
		 M160.86,105.05l-0.29-0.6h-0.15l0,0.6h-0.25v-1.44c0.31,0,0.87-0.08,0.87,0.4c0,0.31-0.23,0.39-0.23,0.39l0.31,0.65H160.86z"/>
	<path class="st0" d="M32.08,72.79v44.88H217.6V72.79H32.08z M146.95,93.29c0-3.12,2.56-3.2,4.28-3.2v2.55
		c-1.84,0-1.76,1.09-1.76,2.11v4.54h-2.51V93.29z M108.46,105.53c-1.34,2.12-3.01,4.75-7.1,6.64c-1.48,0.68-2.94,0.76-4.34,0.25
		c-3.08-1.14-5.15-5.01-6.45-7.82c-1.62-3.51-3.32-7.95-2.15-11.12c0.49-1.31,1.4-2.29,2.73-2.9c4.04-1.86,6.97-1.72,9.33-1.6
		c1.46,0.07,2.62,0.13,3.63-0.34c1.54-0.71,2.16-1.21,2.71-1.66c0.45-0.37,0.92-0.75,1.73-1.12c1.29-0.6,2.63-0.65,3.88-0.17
		c1.42,0.56,2.65,1.81,3.29,3.36l-2.07,0.86c-0.32-0.77-1.02-1.74-2.04-2.13c-0.67-0.26-1.39-0.22-2.12,0.11
		c-0.55,0.25-0.85,0.49-1.26,0.83c-0.62,0.5-1.39,1.13-3.18,1.96c-1.51,0.7-3.05,0.62-4.68,0.54c-2.23-0.11-4.75-0.23-8.29,1.4
		c-0.78,0.36-1.29,0.9-1.57,1.64c-0.9,2.43,0.76,6.54,2.08,9.41h0c0.65,1.41,2.63,5.71,5.19,6.65c0.83,0.31,1.69,0.25,2.62-0.18
		c3.49-1.61,4.9-3.83,6.15-5.8c0.93-1.47,1.81-2.86,3.37-3.58c1.8-0.83,2.96-1.09,3.9-1.3c0.63-0.14,1.13-0.25,1.7-0.51
		c0.85-0.38,1.01-0.81,1.07-0.95c0.29-0.77-0.16-2-0.67-3.15c-0.87-0.87-1.64-0.6-1.73-0.57l-1.28,0.59
		c-0.17,1.49-1.29,2.99-3.04,3.8c-2.42,1.11-5.09,0.46-5.98-1.46c-0.88-1.92,0.36-4.37,2.78-5.49c1.91-0.88,3.99-0.65,5.21,0.43
		l25.75-11.73l0.7-1.95l0.23-0.1l-0.1-0.22c-0.36,0.13-0.69,0.1-0.77-0.07c-0.09-0.2,0.18-0.51,0.6-0.71c0.42-0.19,0.83-0.19,0.92,0
		c0.08,0.17-0.11,0.43-0.45,0.63l0.1,0.22l1.84-0.85l-0.1-0.22c-0.36,0.13-0.69,0.1-0.77-0.07c-0.09-0.2,0.18-0.51,0.6-0.71
		c0.42-0.19,0.83-0.19,0.92,0c0.08,0.17-0.12,0.43-0.45,0.63l0.1,0.22l1.91-0.88l-0.1-0.22c-0.36,0.13-0.69,0.1-0.77-0.07
		c-0.09-0.2,0.18-0.51,0.6-0.71c0.42-0.19,0.83-0.19,0.92,0c0.08,0.17-0.12,0.43-0.45,0.63l0.1,0.22l0.11-0.05l2.29,2.08l0.09,3.09
		l-0.11,0.05l0.1,0.22c0.36-0.13,0.69-0.1,0.77,0.07c0.09,0.2-0.18,0.51-0.6,0.71c-0.42,0.19-0.84,0.19-0.92,0
		c-0.08-0.17,0.12-0.43,0.45-0.63l-0.1-0.22l-1.91,0.88l0.1,0.22c0.36-0.13,0.69-0.1,0.77,0.07c0.09,0.2-0.18,0.51-0.6,0.71
		c-0.42,0.19-0.83,0.19-0.92,0c-0.08-0.17,0.12-0.43,0.45-0.63l-0.1-0.22l-1.84,0.85l0.1,0.22c0.36-0.13,0.69-0.1,0.77,0.07
		c0.09,0.2-0.18,0.51-0.6,0.71c-0.42,0.19-0.83,0.19-0.92,0c-0.08-0.17,0.12-0.43,0.45-0.63l-0.1-0.22l-0.23,0.1l-1.94-0.76
		l-21.34,9.9l0.17,0.36c0.83,1.79,1.78,3.81,1.09,5.64c-0.36,0.96-1.12,1.7-2.25,2.21c-0.77,0.34-1.42,0.49-2.12,0.65
		c-0.88,0.2-1.87,0.42-3.45,1.15C109.92,103.24,109.28,104.25,108.46,105.53z M141.42,92.87c-1.26,0-2.07,1.11-2.07,2
		c0,1.42,1.3,2,2.07,2c0.46,0,0.78-0.08,1.47-0.57c0,1.74-0.02,2.76,0,2.75c-0.46,0.12-0.63,0.22-1.47,0.22
		c-2.56,0-4.56-2.02-4.56-4.41c0-3.04,2.72-4.41,4.56-4.41c2.31,0,4.56,1.78,4.56,4.41c0,1.62,0,1.58,0,2.03c0,0.93,0,1.5,0,2.39
		l-2.49,0c0-0.63,0-1.13,0-2.43c0-0.32,0-1.36,0-1.98C143.5,94.87,143.43,92.87,141.42,92.87z M136.46,97.16v2.23
		c0,0-1.27,0.08-2.1-0.36c-1.51-0.81-1.34-3.18-1.34-3.18v-4.62h-1.63V88.8h1.63v-1.5l2.51-1.13v2.71h1.63v2.39h-1.63v4.76
		C135.54,96.03,135.58,97.16,136.46,97.16z M128.33,90.01v-0.69l2.51-1.09V90L128.33,90.01z M130.84,90.68v8.6h-2.51v-8.6H130.84z
		 M125.14,95.23v-4.54l2.51-1.09v6.15c0,4.82-8.01,4.82-8.01,0.08v-2.73l2.51-1.11v3.27C122.17,97.52,125.14,97.5,125.14,95.23z
		 M119.29,114.67c-4.32,0-6.96-3.67-6.96-6.96c0-2.97,1.99-6.2,5.87-6.84c2.44-0.4,4.81,0.53,6.47,2.38
		c-0.53,0.39-1.73,1.31-1.73,1.31c-1.31-1.2-2.23-1.6-3.65-1.6c-1.13,0-4.76,0.93-4.76,4.76c0,2.51,1.99,4.77,4.76,4.76
		c2.07-0.01,2.97-1.07,3.54-1.61l1.7,1.42C122.41,114.7,120.14,114.67,119.29,114.67z M130.32,111.5c-3.88,2.5-6.33-0.6-6.81-1.41
		c-0.73-1.23-1.12-4.76,1.63-6.28c4.13-2.29,6.44,1.69,6.44,1.69l-4.77,4.69c-0.02,0.01,0.57,0.11,0.74,0.11
		c1.29,0,1.92-0.91,1.92-0.91l2.42,0C131.89,109.39,131.33,110.85,130.32,111.5z M140.05,112.37h-2.43v-4.95
		c0-2.31-2.88-2.27-2.88-0.08v5.03h-2.43v-5.76c0-4.74,7.74-4.74,7.74,0.08V112.37z M144.62,112.45c0,0-1.23,0.07-2.03-0.36
		c-1.42-0.78-1.3-3.57-1.3-3.57v-4.9h-1.58v-2.45h1.58v-1.05h2.43l0,1.13h1.58v2.41h-1.58v5.43c0,0,0.04,1.13,0.89,1.13V112.45z
		 M152.39,111.5c-3.88,2.5-6.33-0.6-6.81-1.41c-0.73-1.23-1.12-4.76,1.63-6.28c4.13-2.29,6.44,1.69,6.44,1.69l-4.77,4.69
		c-0.02,0.01,0.57,0.11,0.74,0.11c1.29,0,1.92-0.91,1.92-0.91s2.11,0.01,2.42,0C153.96,109.39,153.4,110.85,152.39,111.5z
		 M158.92,105.76c-1.78,0-1.7,1.09-1.7,2.11v4.5h-2.43v-5.96c0-2.84,2.5-3.2,4.13-3.2V105.76z M161.33,105.08
		c-0.2,0.2-0.46,0.31-0.74,0.31c-0.28,0-0.54-0.11-0.74-0.31c-0.2-0.2-0.31-0.46-0.31-0.74c0-0.58,0.47-1.05,1.05-1.05
		c0.28,0,0.54,0.11,0.74,0.31c0.2,0.2,0.31,0.46,0.31,0.74C161.64,104.62,161.53,104.88,161.33,105.08z"/>
	<path class="st0" d="M148.17,106.11c0,0-0.98,0.89-0.51,2.08l2.59-2.59C150.25,105.6,149.29,105.11,148.17,106.11z"/>
</g>
</svg>
